# xmcd
#
# Track frame offsets:
# 150
# 12935
# 26990
# 45827
# 58515
# 74195
# 89500
# 101822
# 118395
# 136095
# 148492
# 161830
# 181722
# 193237
#
# Disc length: 2770 seconds
#
#
# Revision: 0
# Processed by: cddbd v1.5.1PL0 Copyright (c) Steve Scherf et al.
# Submitted via: FreeRIP 2.942 
#
DISCID=d60ad00e
DTITLE=Varios - Só Arrasta Pé
DYEAR=1900
DGENRE=Sertanejo
TTITLE0=Bate O Pé
TTITLE1=Goiano e Mineiro
TTITLE2=Você Virou Saudade
TTITLE3=Eu Achei Bão
TTITLE4=Macaco Velho
TTITLE5=Escorpião
TTITLE6=Fazendo O Chão Tremer
TTITLE7=A Gente Se Enrosca
TTITLE8=Pot Pourri
TTITLE9=Foi Como O Vento
TTITLE10=No Embalo Do Arrasta Pé
TTITLE11=A Jiripoca Vai Piá
TTITLE12=Sapatiô, Sapatiô
TTITLE13=Uai, Uai
EXTD=
EXTT0=
EXTT1=
EXTT2=
EXTT3=
EXTT4=
EXTT5=
EXTT6=
EXTT7=
EXTT8=
EXTT9=
EXTT10=
EXTT11=
EXTT12=
EXTT13=
PLAYORDER=
